<mxfile host="app.diagrams.net" modified="2023-03-23T01:39:43.198Z" agent="5.0 (Windows NT 10.0; Win64; x64) AppleWebKit/537.36 (KHTML, like Gecko) Chrome/108.0.0.0 Safari/537.36" etag="VQuJSoGi1Nvy-SbRBoeN" version="21.0.10" type="github">
  <diagram name="Page-1" id="I89bv1A7Qo-vh1wMKSND">
    <mxGraphModel dx="794" dy="430" grid="1" gridSize="10" guides="1" tooltips="1" connect="1" arrows="1" fold="1" page="1" pageScale="1" pageWidth="827" pageHeight="1169" math="0" shadow="0">
      <root>
        <mxCell id="0" />
        <mxCell id="1" parent="0" />
        <mxCell id="LcEhE2uEtVbHiO7Vmx3B-1" style="edgeStyle=orthogonalEdgeStyle;orthogonalLoop=1;jettySize=auto;html=1;entryX=0;entryY=0.5;entryDx=0;entryDy=0;strokeColor=#1e7ba9;strokeWidth=3;curved=1;startArrow=oval;startFill=1;" edge="1" parent="1" source="LcEhE2uEtVbHiO7Vmx3B-2" target="LcEhE2uEtVbHiO7Vmx3B-3">
          <mxGeometry relative="1" as="geometry" />
        </mxCell>
        <mxCell id="LcEhE2uEtVbHiO7Vmx3B-2" value="Pew 3DS" style="rounded=0;whiteSpace=wrap;html=1;fillColor=#e51400;strokeColor=#B20000;fontColor=#ffffff;" vertex="1" parent="1">
          <mxGeometry x="99" y="410" width="80" height="50" as="geometry" />
        </mxCell>
        <mxCell id="LcEhE2uEtVbHiO7Vmx3B-3" value="" style="shape=datastore;whiteSpace=wrap;html=1;fillColor=#f5f5f5;fontColor=#333333;strokeColor=#666666;" vertex="1" parent="1">
          <mxGeometry x="359" y="640" width="60" height="60" as="geometry" />
        </mxCell>
        <mxCell id="LcEhE2uEtVbHiO7Vmx3B-4" value="SOA GCL" style="rounded=0;whiteSpace=wrap;html=1;fillColor=#008a00;strokeColor=#005700;fontColor=#ffffff;fontStyle=1" vertex="1" parent="1">
          <mxGeometry x="259" y="410" width="90" height="50" as="geometry" />
        </mxCell>
        <mxCell id="LcEhE2uEtVbHiO7Vmx3B-5" value="Pew LtOrderManagement" style="rounded=0;whiteSpace=wrap;html=1;fillColor=#008a00;strokeColor=#005700;fontColor=#ffffff;fontStyle=1" vertex="1" parent="1">
          <mxGeometry x="409" y="410" width="130" height="50" as="geometry" />
        </mxCell>
        <mxCell id="LcEhE2uEtVbHiO7Vmx3B-6" value="SOA LtRegistrationService" style="rounded=0;whiteSpace=wrap;html=1;fillColor=#008a00;strokeColor=#005700;fontColor=#ffffff;fontStyle=1" vertex="1" parent="1">
          <mxGeometry x="579" y="410" width="130" height="60" as="geometry" />
        </mxCell>
        <mxCell id="LcEhE2uEtVbHiO7Vmx3B-7" style="edgeStyle=orthogonalEdgeStyle;orthogonalLoop=1;jettySize=auto;html=1;entryX=0.5;entryY=0;entryDx=0;entryDy=0;strokeColor=#1e7ba9;strokeWidth=3;curved=1;startArrow=oval;startFill=1;exitX=0.5;exitY=1;exitDx=0;exitDy=0;" edge="1" parent="1" source="LcEhE2uEtVbHiO7Vmx3B-4" target="LcEhE2uEtVbHiO7Vmx3B-3">
          <mxGeometry relative="1" as="geometry">
            <mxPoint x="149" y="395" as="sourcePoint" />
            <mxPoint x="273" y="580" as="targetPoint" />
          </mxGeometry>
        </mxCell>
        <mxCell id="LcEhE2uEtVbHiO7Vmx3B-8" style="edgeStyle=orthogonalEdgeStyle;orthogonalLoop=1;jettySize=auto;html=1;entryX=1;entryY=0.5;entryDx=0;entryDy=0;strokeColor=#1e7ba9;strokeWidth=3;curved=1;startArrow=oval;startFill=1;" edge="1" parent="1" source="LcEhE2uEtVbHiO7Vmx3B-5" target="LcEhE2uEtVbHiO7Vmx3B-3">
          <mxGeometry relative="1" as="geometry">
            <mxPoint x="159" y="405" as="sourcePoint" />
            <mxPoint x="283" y="590" as="targetPoint" />
          </mxGeometry>
        </mxCell>
        <mxCell id="LcEhE2uEtVbHiO7Vmx3B-9" value="myBatis" style="edgeLabel;html=1;align=center;verticalAlign=middle;resizable=0;points=[];fontStyle=1" vertex="1" connectable="0" parent="LcEhE2uEtVbHiO7Vmx3B-8">
          <mxGeometry x="-0.2956" y="-2" relative="1" as="geometry">
            <mxPoint as="offset" />
          </mxGeometry>
        </mxCell>
        <mxCell id="LcEhE2uEtVbHiO7Vmx3B-10" style="edgeStyle=orthogonalEdgeStyle;orthogonalLoop=1;jettySize=auto;html=1;strokeColor=#2D7600;strokeWidth=3;curved=1;startArrow=oval;startFill=1;exitX=1;exitY=0.5;exitDx=0;exitDy=0;entryX=1;entryY=0.7;entryDx=0;entryDy=0;fillColor=#60a917;" edge="1" parent="1" source="LcEhE2uEtVbHiO7Vmx3B-6" target="LcEhE2uEtVbHiO7Vmx3B-3">
          <mxGeometry relative="1" as="geometry">
            <mxPoint x="159" y="405" as="sourcePoint" />
            <mxPoint x="269" y="600" as="targetPoint" />
          </mxGeometry>
        </mxCell>
        <mxCell id="LcEhE2uEtVbHiO7Vmx3B-11" value="Appache Camel" style="edgeLabel;html=1;align=center;verticalAlign=middle;resizable=0;points=[];fontStyle=1" vertex="1" connectable="0" parent="LcEhE2uEtVbHiO7Vmx3B-10">
          <mxGeometry x="-0.3939" y="-5" relative="1" as="geometry">
            <mxPoint as="offset" />
          </mxGeometry>
        </mxCell>
        <mxCell id="LcEhE2uEtVbHiO7Vmx3B-12" value="Pew 3DS" style="rounded=0;whiteSpace=wrap;html=1;fillColor=#e51400;fontColor=#ffffff;strokeColor=#B20000;verticalAlign=top;" vertex="1" parent="1">
          <mxGeometry x="88.5" y="130" width="165" height="120" as="geometry" />
        </mxCell>
        <mxCell id="LcEhE2uEtVbHiO7Vmx3B-13" value="&lt;b&gt;Pew Payment&lt;/b&gt;" style="rounded=0;whiteSpace=wrap;html=1;fillColor=#008a00;fontColor=#ffffff;strokeColor=#005700;" vertex="1" parent="1">
          <mxGeometry x="459" y="170" width="120" height="60" as="geometry" />
        </mxCell>
        <mxCell id="LcEhE2uEtVbHiO7Vmx3B-14" value="myBatis" style="edgeLabel;html=1;align=center;verticalAlign=middle;resizable=0;points=[];fontStyle=1" vertex="1" connectable="0" parent="1">
          <mxGeometry x="482" y="563" as="geometry">
            <mxPoint x="-153" y="-19" as="offset" />
          </mxGeometry>
        </mxCell>
        <mxCell id="LcEhE2uEtVbHiO7Vmx3B-15" value="myBatis" style="edgeLabel;html=1;align=center;verticalAlign=middle;resizable=0;points=[];fontStyle=1" vertex="1" connectable="0" parent="1">
          <mxGeometry x="492" y="573" as="geometry">
            <mxPoint x="-220" y="-39" as="offset" />
          </mxGeometry>
        </mxCell>
        <mxCell id="LcEhE2uEtVbHiO7Vmx3B-16" value="&lt;ul&gt;&lt;li&gt;Service 1&lt;/li&gt;&lt;li&gt;Service 2&lt;/li&gt;&lt;li&gt;Service 3&lt;/li&gt;&lt;/ul&gt;" style="strokeWidth=2;html=1;shape=mxgraph.flowchart.annotation_2;align=left;labelPosition=right;pointerEvents=1;spacing=-40;" vertex="1" parent="1">
          <mxGeometry x="130" y="170" width="40" height="60" as="geometry" />
        </mxCell>
        <mxCell id="LcEhE2uEtVbHiO7Vmx3B-17" style="edgeStyle=orthogonalEdgeStyle;orthogonalLoop=1;jettySize=auto;html=1;curved=1;" edge="1" parent="1" source="LcEhE2uEtVbHiO7Vmx3B-18" target="LcEhE2uEtVbHiO7Vmx3B-13">
          <mxGeometry relative="1" as="geometry" />
        </mxCell>
        <mxCell id="LcEhE2uEtVbHiO7Vmx3B-18" value="&lt;b&gt;Daily&lt;/b&gt;" style="rounded=0;whiteSpace=wrap;html=1;fillColor=#008a00;fontColor=#ffffff;strokeColor=#005700;" vertex="1" parent="1">
          <mxGeometry x="450" y="20" width="140" height="60" as="geometry" />
        </mxCell>
        <mxCell id="LcEhE2uEtVbHiO7Vmx3B-19" value="UI 3ds" style="rounded=0;whiteSpace=wrap;html=1;fillColor=#e51400;fontColor=#ffffff;strokeColor=#B20000;" vertex="1" parent="1">
          <mxGeometry x="152.5" y="50" width="101" height="40" as="geometry" />
        </mxCell>
      </root>
    </mxGraphModel>
  </diagram>
</mxfile>
